<?xml version="1.0" encoding="UTF-8" standalone="no"?>
<!DOCTYPE svg PUBLIC "-//W3C//DTD SVG 1.1//EN" "http://www.w3.org/Graphics/SVG/1.1/DTD/svg11.dtd">
<!-- Created with Vectornator (http://vectornator.io/) -->
<svg height="100%" stroke-miterlimit="10" style="fill-rule:nonzero;clip-rule:evenodd;stroke-linecap:round;stroke-linejoin:round;" version="1.1" viewBox="0 0.00505371 1158.18 1158.18" width="100%" xml:space="preserve" xmlns="http://www.w3.org/2000/svg" xmlns:vectornator="http://vectornator.io" xmlns:xlink="http://www.w3.org/1999/xlink">
<defs/>
<g id="Layer">
<g opacity="1">
<path d="M591.491 338.521L579.088 350.924L566.685 338.521L579.088 326.118L591.491 338.521Z" fill="#575243" fill-rule="nonzero" opacity="1" stroke="none"/>
<path d="M591.491 819.664L579.088 832.067L566.685 819.664L579.088 807.261L591.491 819.664Z" fill="#575243" fill-rule="nonzero" opacity="1" stroke="none"/>
<g opacity="1">
<clipPath clip-rule="nonzero" id="ClipPath">
<path d="M0 0.00505371L1158.18 0.00505371L1158.18 1158.18L0 1158.18L0 0.00505371Z"/>
</clipPath>
<g clip-path="url(#ClipPath)">
<path d="M390.67 487.625C390.67 476.84 393.53 469.85 403.098 469.85C409.2 469.85 413.188 473.225 413.838 481.112L409.857 481.531C409.2 476.183 407.131 473.464 402.724 473.464C397.093 473.464 395.121 478.02 395.121 487.535C395.121 497.349 396.861 501.427 402.68 501.427C406.287 501.427 408.774 499.082 409.76 494.242L413.561 494.944C412.478 502.413 407.557 504.982 402.299 504.982C392.589 504.982 390.67 497.11 390.67 487.625" fill="#575243" fill-rule="nonzero" opacity="1" stroke="none"/>
<path d="M448.604 487.207C448.604 478.2 447.192 473.465 441.516 473.465C435.75 473.465 433.868 478.245 433.868 487.401C433.868 497.066 435.467 501.427 441.188 501.427C446.909 501.427 448.604 496.871 448.604 487.207M429.365 487.446C429.365 477.304 432.039 469.85 441.613 469.85C451.225 469.85 453.055 477.304 453.055 486.744C453.055 497.812 450.568 504.982 441.046 504.982C431.381 504.982 429.365 497.618 429.365 487.446" fill="#575243" fill-rule="nonzero" opacity="1" stroke="none"/>
<path d="M469.188 504.429L469.188 470.462L474.536 470.462L488.046 497.812L488.188 497.812L488.188 470.462L491.99 470.462L491.99 504.429L487.292 504.429L473.176 476.138L473.034 476.138L473.034 504.429L469.188 504.429Z" fill="#575243" fill-rule="nonzero" opacity="1" stroke="none"/>
<path d="M508.592 504.429L508.592 470.462L513.94 470.462L527.45 497.812L527.592 497.812L527.592 470.462L531.394 470.462L531.394 504.429L526.696 504.429L512.58 476.138L512.438 476.138L512.438 504.429L508.592 504.429Z" fill="#575243" fill-rule="nonzero" opacity="1" stroke="none"/>
<path d="M549.632 504.429L549.632 470.462L569.192 470.462L569.192 474.032L553.949 474.032L553.949 485.384L568.207 485.384L568.207 488.939L553.949 488.939L553.949 500.859L569.805 500.859L569.805 504.429L549.632 504.429Z" fill="#575243" fill-rule="nonzero" opacity="1" stroke="none"/>
<path d="M587.678 487.625C587.678 476.84 590.538 469.85 600.106 469.85C606.208 469.85 610.196 473.225 610.846 481.112L606.865 481.531C606.208 476.183 604.139 473.464 599.732 473.464C594.101 473.464 592.129 478.02 592.129 487.535C592.129 497.349 593.87 501.427 599.688 501.427C603.295 501.427 605.782 499.082 606.768 494.242L610.569 494.944C609.486 502.413 604.565 504.982 599.307 504.982C589.597 504.982 587.678 497.11 587.678 487.625" fill="#575243" fill-rule="nonzero" opacity="1" stroke="none"/>
<path d="M636.082 504.429L636.082 474.076L625.618 474.076L625.618 470.462L650.765 470.462L650.765 474.076L640.391 474.076L640.391 504.429L636.082 504.429Z" fill="#575243" fill-rule="nonzero" opacity="1" stroke="none"/>
<path d="M667.51 504.429L667.51 500.993L675.487 500.993L675.487 473.882L667.51 473.882L667.51 470.462L687.683 470.462L687.683 473.882L679.796 473.882L679.796 500.993L687.683 500.993L687.683 504.429L667.51 504.429Z" fill="#575243" fill-rule="nonzero" opacity="1" stroke="none"/>
<path d="M724.406 487.207C724.406 478.2 722.994 473.465 717.318 473.465C711.552 473.465 709.67 478.245 709.67 487.401C709.67 497.066 711.269 501.427 716.99 501.427C722.711 501.427 724.406 496.871 724.406 487.207M705.167 487.446C705.167 477.304 707.841 469.85 717.415 469.85C727.028 469.85 728.857 477.304 728.857 486.744C728.857 497.812 726.37 504.982 716.848 504.982C707.183 504.982 705.167 497.618 705.167 487.446" fill="#575243" fill-rule="nonzero" opacity="1" stroke="none"/>
<path d="M744.997 504.429L744.997 470.462L750.345 470.462L763.855 497.812L763.997 497.812L763.997 470.462L767.799 470.462L767.799 504.429L763.101 504.429L748.985 476.138L748.843 476.138L748.843 504.429L744.997 504.429Z" fill="#575243" fill-rule="nonzero" opacity="1" stroke="none"/>
<path d="M436.124 584.449L445.833 584.449L441.001 568.451L440.956 568.451L436.124 584.449ZM449.866 598.236L446.774 588.019L435.228 588.019L432.136 598.236L427.774 598.236L438.327 564.269L443.72 564.269L454.609 598.236L449.866 598.236Z" fill="#575243" fill-rule="nonzero" opacity="1" stroke="none"/>
<path d="M474.117 594.725L477.403 594.725C484.625 594.725 487.956 589.751 487.956 581.356C487.956 570.885 484.207 567.793 477.732 567.793L474.117 567.793L474.117 594.725ZM469.808 598.235L469.808 564.268L478.105 564.268C488.285 564.268 492.415 570.601 492.415 580.744C492.415 591.155 487.867 598.235 477.306 598.235L469.808 598.235Z" fill="#575243" fill-rule="nonzero" opacity="1" stroke="none"/>
<path d="M517.129 598.236L506.479 564.269L511.169 564.269L519.989 594.487L520.228 594.487L529.139 564.269L533.5 564.269L523.037 598.236L517.129 598.236Z" fill="#575243" fill-rule="nonzero" opacity="1" stroke="none"/>
<path d="M566.81 581.028C566.81 572.021 565.398 567.271 559.722 567.271C553.956 567.271 552.074 572.066 552.074 581.207C552.074 590.872 553.673 595.233 559.394 595.233C565.122 595.233 566.81 590.692 566.81 581.028M547.571 581.252C547.571 571.125 550.245 563.671 559.819 563.671C569.432 563.671 571.261 571.125 571.261 580.55C571.261 591.619 568.774 598.803 559.252 598.803C549.587 598.803 547.571 591.439 547.571 581.252" fill="#575243" fill-rule="nonzero" opacity="1" stroke="none"/>
<path d="M595.931 598.236L585.281 564.269L589.971 564.269L598.791 594.487L599.03 594.487L607.941 564.269L612.302 564.269L601.839 598.236L595.931 598.236Z" fill="#575243" fill-rule="nonzero" opacity="1" stroke="none"/>
<path d="M633.132 584.449L642.841 584.449L638.009 568.451L637.964 568.451L633.132 584.449ZM646.874 598.236L643.782 588.019L632.236 588.019L629.144 598.236L624.782 598.236L635.335 564.269L640.728 564.269L651.617 598.236L646.874 598.236Z" fill="#575243" fill-rule="nonzero" opacity="1" stroke="none"/>
<path d="M666.479 581.446C666.479 570.661 669.339 563.671 678.907 563.671C685.009 563.671 688.997 567.046 689.647 574.918L685.666 575.352C685.009 570.004 682.94 567.27 678.533 567.27C672.902 567.27 670.93 571.826 670.93 581.356C670.93 591.155 672.671 595.233 678.489 595.233C682.096 595.233 684.583 592.888 685.569 588.063L689.37 588.765C688.287 596.219 683.366 598.803 678.108 598.803C668.398 598.803 666.479 590.916 666.479 581.446" fill="#575243" fill-rule="nonzero" opacity="1" stroke="none"/>
<path d="M715.078 598.236L715.078 585.241L703.397 564.269L708.035 564.269L717.094 581.073L717.326 581.073L726.244 564.269L730.605 564.269L719.395 585.106L719.395 598.236L715.078 598.236Z" fill="#575243" fill-rule="nonzero" opacity="1" stroke="none"/>
<path d="M396.719 678.255L406.428 678.255L401.596 662.257L401.551 662.257L396.719 678.255ZM410.461 692.057L407.369 681.825L395.823 681.825L392.731 692.057L388.369 692.057L398.922 658.09L404.315 658.09L415.204 692.057L410.461 692.057Z" fill="#575243" fill-rule="nonzero" opacity="1" stroke="none"/>
<path d="M434.712 688.532L437.998 688.532C445.22 688.532 448.551 683.558 448.551 675.163C448.551 664.707 444.802 661.6 438.327 661.6L434.712 661.6L434.712 688.532ZM430.403 692.057L430.403 658.09L438.7 658.09C448.88 658.09 453.01 664.423 453.01 674.551C453.01 684.977 448.462 692.057 437.901 692.057L430.403 692.057Z" fill="#575243" fill-rule="nonzero" opacity="1" stroke="none"/>
<path d="M477.724 692.057L467.074 658.09L471.764 658.09L480.585 688.308L480.823 688.308L489.734 658.09L494.095 658.09L483.632 692.057L477.724 692.057Z" fill="#575243" fill-rule="nonzero" opacity="1" stroke="none"/>
<path d="M509.907 692.057L509.907 688.621L517.884 688.621L517.884 661.51L509.907 661.51L509.907 658.09L530.08 658.09L530.08 661.51L522.193 661.51L522.193 688.621L530.08 688.621L530.08 692.057L509.907 692.057Z" fill="#575243" fill-rule="nonzero" opacity="1" stroke="none"/>
<path d="M547.705 682.856L551.551 682.244C552.395 686.71 553.897 689.145 559.199 689.145C563.001 689.145 566.048 687.696 566.048 683.274C566.048 678.868 562.53 677.747 558.639 676.567C554.038 675.208 548.975 673.758 548.975 666.812C548.975 661.047 553.053 657.477 559.67 657.477C565.577 657.477 569.334 659.822 570.036 667.007L566.19 667.514C565.63 663.855 564.875 661.002 559.67 661.002C554.696 661.002 553.097 663.347 553.097 666.439C553.097 670.606 556.667 671.742 560.559 672.967C565.204 674.372 570.268 675.97 570.268 682.677C570.268 689.667 565.107 692.61 559.057 692.61C552.448 692.61 548.601 690.086 547.705 682.856" fill="#575243" fill-rule="nonzero" opacity="1" stroke="none"/>
<path d="M589.037 692.057L589.037 658.09L608.597 658.09L608.597 661.66L593.354 661.66L593.354 673.012L607.612 673.012L607.612 676.567L593.354 676.567L593.354 688.487L609.21 688.487L609.21 692.057L589.037 692.057Z" fill="#575243" fill-rule="nonzero" opacity="1" stroke="none"/>
<path d="M625.618 658.09L631.436 658.09L638.285 676.015L638.472 676.015L644.947 658.09L650.765 658.09L650.765 692.057L646.68 692.057L646.919 663.632L646.724 663.527L640.018 681.258L636.545 681.258L629.651 663.482L629.464 663.527L629.651 692.057L625.618 692.057L625.618 658.09Z" fill="#575243" fill-rule="nonzero" opacity="1" stroke="none"/>
<path d="M667.839 692.057L667.839 658.09L687.399 658.09L687.399 661.66L672.156 661.66L672.156 673.012L686.414 673.012L686.414 676.567L672.156 676.567L672.156 688.487L688.012 688.487L688.012 692.057L667.839 692.057Z" fill="#575243" fill-rule="nonzero" opacity="1" stroke="none"/>
<path d="M705.593 692.057L705.593 658.09L710.941 658.09L724.451 685.44L724.593 685.44L724.593 658.09L728.395 658.09L728.395 692.057L723.697 692.057L709.581 663.766L709.439 663.766L709.439 692.057L705.593 692.057Z" fill="#575243" fill-rule="nonzero" opacity="1" stroke="none"/>
<path d="M754.288 692.057L754.288 661.704L743.824 661.704L743.824 658.09L768.971 658.09L768.971 661.704L758.597 661.704L758.597 692.057L754.288 692.057Z" fill="#575243" fill-rule="nonzero" opacity="1" stroke="none"/>
<path d="M163.429 524.535L164.475 517.589C165.371 511.689 164.49 506.506 155.99 505.221C148.275 504.056 146.154 507.985 144.929 516.095L144.093 521.607L163.429 524.535ZM185.245 533.871L138.267 526.776L140.567 511.584C142.338 499.844 149.985 498.006 156.408 498.977C163.414 500.038 168.149 503.414 169.284 509.956L190.017 502.264L189.046 508.687L169.65 515.856L168.231 525.252L186.141 527.971L185.245 533.871Z" fill="#575243" fill-rule="nonzero" opacity="1" stroke="none"/>
<path d="M195.805 477.737L150.269 464.039L158.148 437.81L162.928 439.259L156.789 459.693L172.01 464.264L177.753 445.144L182.533 446.593L176.79 465.712L192.765 470.507L199.158 449.252L203.938 450.686L195.805 477.737Z" fill="#575243" fill-rule="nonzero" opacity="1" stroke="none"/>
<path d="M211.474 418.256L213.408 414.088C217.673 404.932 213.326 397.762 202.676 392.818C189.404 386.649 183.257 389.591 179.441 397.792L177.312 402.378L211.474 418.256ZM213.393 425.814L170.307 405.783L175.199 395.253C181.204 382.332 191.675 380.823 204.528 386.798C217.74 392.937 224.044 402.9 217.822 416.284L213.393 425.814Z" fill="#575243" fill-rule="nonzero" opacity="1" stroke="none"/>
<path d="M279.088 320.417L247.152 292.395L237.495 303.403L233.694 300.072L256.899 273.618L260.7 276.949L251.133 287.854L283.069 315.861L279.088 320.417Z" fill="#575243" fill-rule="nonzero" opacity="1" stroke="none"/>
<path d="M309.53 288.436L278.52 252.362L283.106 248.419L296.512 264.014L310.262 252.198L296.856 236.604L301.441 232.66L332.451 268.734L327.866 272.677L313.6 256.082L299.851 267.897L314.116 284.493L309.53 288.436Z" fill="#575243" fill-rule="nonzero" opacity="1" stroke="none"/>
<path d="M346.396 230.36L352.319 226.581C357.353 223.354 360.669 219.291 356.038 212.047C351.833 205.46 347.479 206.445 340.563 210.867L335.858 213.869L346.396 230.36ZM353.738 252.93L328.143 212.883L341.086 204.608C351.094 198.215 357.509 202.756 361.012 208.238C364.829 214.213 365.411 219.994 361.229 225.162L380.677 235.708L375.203 239.218L357.039 229.329L349.018 234.453L358.772 249.719L353.738 252.93Z" fill="#575243" fill-rule="nonzero" opacity="1" stroke="none"/>
<path d="M403.083 223.847L383.396 180.589L408.311 169.251L410.38 173.792L390.961 182.635L397.541 197.094L415.705 188.819L417.774 193.36L399.61 201.635L406.511 216.812L426.706 207.61L428.775 212.151L403.083 223.847Z" fill="#575243" fill-rule="nonzero" opacity="1" stroke="none"/>
<path d="M456.088 182.127L469.136 178.333L456.394 158.735L456.334 158.75L456.088 182.127ZM479.943 195.287L471.787 182.754L456.282 187.265L456.118 202.203L450.255 203.906L451.174 154.164L458.418 152.058L486.306 193.435L479.943 195.287Z" fill="#575243" fill-rule="nonzero" opacity="1" stroke="none"/>
<path d="M513.402 183.293L517.958 182.651C527.966 181.217 531.603 173.673 529.953 162.037C527.899 147.548 522.088 143.993 513.118 145.263L508.114 145.98L513.402 183.293ZM508.114 189.014L501.445 141.947L512.946 140.318C527.055 138.317 534.015 146.278 536.01 160.319C538.056 174.749 533.142 185.459 518.518 187.535L508.114 189.014Z" fill="#575243" fill-rule="nonzero" opacity="1" stroke="none"/>
<path d="M623.303 161.469C625.424 146.517 630.764 137.39 644.021 139.272C652.476 140.467 657.338 145.934 656.695 156.988L651.086 156.794C651.228 149.25 648.906 145.068 642.796 144.201C634.991 143.096 631.369 149.026 629.502 162.216C627.575 175.794 629.173 181.799 637.232 182.934C642.236 183.651 646.142 180.888 648.457 174.39L653.588 176.108C650.623 186.235 643.297 188.834 636.015 187.803C622.556 185.891 621.443 174.599 623.303 161.469" fill="#575243" fill-rule="nonzero" opacity="1" stroke="none"/>
<path d="M707.042 178.587C710.582 166.488 710.552 159.572 702.927 157.346C695.174 155.076 690.775 160.767 687.183 173.045C683.381 186.041 683.807 192.523 691.5 194.764C699.185 197.02 703.24 191.567 707.042 178.587M681.111 171.342C685.092 157.735 691.619 148.757 704.473 152.521C717.394 156.301 716.916 167.04 713.211 179.707C708.857 194.585 702.695 203.248 689.909 199.499C676.928 195.705 677.108 185.025 681.111 171.342" fill="#575243" fill-rule="nonzero" opacity="1" stroke="none"/>
<path d="M728.409 211.718L748.096 168.46L754.908 171.567L756.26 214.227L756.439 214.302L772.295 179.468L777.134 181.679L757.447 224.937L751.472 222.219L749.881 178.004L749.702 177.915L733.308 213.944L728.409 211.718Z" fill="#575243" fill-rule="nonzero" opacity="1" stroke="none"/>
<path d="M785.507 225.55L790.504 227.731C788.136 233.616 788.069 237.634 794.32 241.623C798.801 244.49 803.491 245.073 806.815 239.875C810.139 234.677 806.837 230.688 803.133 226.372C798.734 221.308 793.857 215.766 799.092 207.58C803.439 200.784 810.938 199.649 818.742 204.638C825.711 209.089 828.37 214.691 823.784 223.683L818.862 221.397C820.953 216.647 822.23 212.719 816.091 208.79C810.221 205.041 806.576 206.61 804.238 210.254C801.094 215.184 804.447 219.187 808.122 223.563C812.536 228.732 817.309 234.423 812.252 242.34C806.987 250.57 798.674 250.167 791.534 245.611C783.737 240.622 781.108 234.736 785.507 225.55" fill="#575243" fill-rule="nonzero" opacity="1" stroke="none"/>
<path d="M835.323 256.366L856.138 232.197L860.709 236.141L839.894 260.309C834.375 266.718 835.077 271.124 840.342 275.665C844.868 279.564 849.7 280.086 855.219 273.678L876.124 249.42L880.695 253.364L859.798 277.622C852.389 286.226 844.151 285.628 836.847 279.325C828.444 272.095 828.429 264.372 835.323 256.366" fill="#575243" fill-rule="nonzero" opacity="1" stroke="none"/>
<path d="M868.439 308.228L904.266 276.964L908.239 281.52L876.274 309.408L892.159 327.617L888.306 330.992L868.439 308.228Z" fill="#575243" fill-rule="nonzero" opacity="1" stroke="none"/>
<path d="M909.741 360.852L945.381 337.684L937.39 325.391L941.632 322.642L960.834 352.159L956.592 354.922L948.675 342.748L913.035 365.931L909.741 360.852Z" fill="#575243" fill-rule="nonzero" opacity="1" stroke="none"/>
<path d="M932.647 399.719L936.994 397.702L941.691 407.815L976.092 391.832L971.387 381.705L975.734 379.688L987.631 405.291L983.284 407.307L978.639 397.299L944.238 413.297L948.884 423.29L944.537 425.307L932.647 399.719Z" fill="#575243" fill-rule="nonzero" opacity="1" stroke="none"/>
<path d="M953.925 449.655L999.461 435.972L1001.62 443.142L970.393 472.285L970.446 472.464L1007.12 461.455L1008.65 466.549L963.111 480.232L961.222 473.943L993.457 443.605L993.404 443.426L955.471 454.823L953.925 449.655Z" fill="#575243" fill-rule="nonzero" opacity="1" stroke="none"/>
<path d="M991.291 500.008C1005.2 497.932 1016.74 499.53 1018.77 513.183C1020.22 522.937 1015.35 528.18 1005.44 530.794L1004.02 525.282C1012.25 522.937 1014.53 519.068 1013.73 513.676C1012.3 504.116 1001.9 504.743 992.404 506.147C977.915 508.313 973.904 512.167 974.994 519.516C975.965 526.014 981.806 528.658 990.522 527.358L992.015 527.134L990.387 516.215L995.13 515.513L997.595 532.019L973.15 535.663L972.515 531.376L978.31 529.718C974.031 528.628 970.715 524.669 969.893 519.143C968.078 506.984 977.317 502.084 991.291 500.008" fill="#575243" fill-rule="nonzero" opacity="1" stroke="none"/>
<path d="M162.353 754.554L201.392 737.779L195.611 724.336L200.256 722.334L214.141 754.674L209.495 756.675L203.774 743.336L164.735 760.096L162.353 754.554Z" fill="#575243" fill-rule="nonzero" opacity="1" stroke="none"/>
<path d="M183.728 798.948L224.455 774.451L227.569 779.619L209.965 790.21L219.301 805.744L236.912 795.139L240.027 800.322L199.3 824.819L196.186 819.651L214.917 808.373L205.574 792.854L186.842 804.116L183.728 798.948Z" fill="#575243" fill-rule="nonzero" opacity="1" stroke="none"/>
<path d="M218.174 851.662L255.174 821.832L272.352 843.148L268.468 846.285L255.084 829.674L242.716 839.637L255.233 855.172L251.35 858.309L238.825 842.774L225.844 853.23L239.766 870.513L235.882 873.635L218.174 851.662Z" fill="#575243" fill-rule="nonzero" opacity="1" stroke="none"/>
<path d="M308.111 935.012L317.604 941.823L338.695 912.442L326.954 908.543L329.636 904.809L345.432 909.365L347.247 910.664L322.406 945.274L330.726 951.249L327.858 955.237L305.243 939.015L308.111 935.012Z" fill="#575243" fill-rule="nonzero" opacity="1" stroke="none"/>
<path d="M355.134 972.116L357.277 968.053L374.657 961.735C384.456 958.224 388.765 955.834 391.559 950.561C394.046 945.856 392.276 942.465 387.63 940.016C381.543 936.789 378.01 938.567 375.03 944.183L370.49 941.27C375.494 931.815 383.201 932.248 390.05 935.878C397.758 939.956 400.797 945.871 396.772 953.459C393.553 959.554 387.667 962.526 377.876 965.887L363.648 970.757L363.618 970.816L382.873 981.004L380.475 985.53L355.134 972.116Z" fill="#575243" fill-rule="nonzero" opacity="1" stroke="none"/>
<path d="M440.366 1009.8L433.697 1007.37L428.304 991.266L414.002 1000.18L407.833 997.928L426.407 986.516L419.528 966.246L425.952 968.591L431.209 984.29L445.213 975.612L451.323 977.837L433.263 988.816L440.366 1009.8Z" fill="#575243" fill-rule="nonzero" opacity="1" stroke="none"/>
<path d="M471.57 1013.4L482.99 1015.88L490.645 980.511L478.314 981.602L479.285 977.105L495.597 974.999L497.777 975.477L488.77 1017.12L498.778 1019.29L497.74 1024.1L470.524 1018.21L471.57 1013.4Z" fill="#575243" fill-rule="nonzero" opacity="1" stroke="none"/>
<path d="M529.609 1028.7L529.96 1024.11L543.381 1011.39C550.969 1004.26 553.972 1000.33 554.427 994.373C554.838 989.07 551.858 986.68 546.623 986.277C539.744 985.754 537.212 988.787 536.727 995.135L531.387 994.254C532.208 983.588 539.46 980.915 547.183 981.512C555.891 982.184 561.037 986.397 560.38 994.971C559.85 1001.84 555.637 1006.92 547.997 1013.91L536.876 1024.05L536.869 1024.11L558.61 1025.79L558.214 1030.89L529.609 1028.7Z" fill="#575243" fill-rule="nonzero" opacity="1" stroke="none"/>
<path d="M648.689 1015.21L654.171 1013.13C655.441 1017.23 658.144 1020.11 663.357 1019.09C667.674 1018.24 670.968 1015.93 669.736 1009.62L663.925 979.928L646.852 983.259L645.881 978.3L668.877 973.804L675.621 1008.26C677.436 1017.54 672.484 1022.32 664.052 1023.98C656.449 1025.46 650.474 1022.62 648.689 1015.21" fill="#575243" fill-rule="nonzero" opacity="1" stroke="none"/>
<path d="M727.558 980.765C723.48 968.845 719.469 963.214 711.956 965.783C704.323 968.397 704.002 975.582 708.147 987.681C712.524 1000.47 716.609 1005.52 724.182 1002.93C731.755 1000.35 731.927 993.551 727.558 980.765M702.209 989.787C697.616 976.373 697.78 965.29 710.447 960.958C723.174 956.611 728.97 965.648 733.242 978.121C738.253 992.775 738.216 1003.39 725.609 1007.71C712.822 1012.09 706.818 1003.26 702.209 989.787" fill="#575243" fill-rule="nonzero" opacity="1" stroke="none"/>
<path d="M760.622 976.403L746.275 947.888L751.675 945.169L766.022 973.699C769.831 981.273 774.185 982.318 780.406 979.181C785.747 976.493 788.092 972.235 784.283 964.662L769.876 936.013L775.276 933.294L789.683 961.944C794.791 972.101 791.072 979.48 782.445 983.827C772.527 988.816 765.38 985.858 760.622 976.403" fill="#575243" fill-rule="nonzero" opacity="1" stroke="none"/>
<path d="M814.904 937.701L820.7 933.713C825.621 930.322 828.811 926.14 823.934 919.059C819.505 912.606 815.18 913.742 808.414 918.402L803.813 921.569L814.904 937.701ZM823.007 960.032L796.053 920.837L808.727 912.128C818.526 905.392 825.091 909.723 828.781 915.086C832.799 920.926 833.576 926.692 829.565 932.01L849.379 941.913L844.017 945.588L825.509 936.312L817.66 941.704L827.929 956.656L823.007 960.032Z" fill="#575243" fill-rule="nonzero" opacity="1" stroke="none"/>
<path d="M871.486 924.227L839.46 889.08L844.995 884.031L884.765 899.595L884.907 899.461L859.125 871.17L863.054 867.585L895.072 902.732L890.217 907.154L848.938 891.186L848.796 891.32L875.459 920.597L871.486 924.227Z" fill="#575243" fill-rule="nonzero" opacity="1" stroke="none"/>
<path d="M916.963 879.714L880.553 849.212L898.12 828.24L901.944 831.452L888.246 847.793L900.42 857.98L913.229 842.699L917.053 845.896L904.244 861.192L917.015 871.887L931.258 854.888L935.082 858.085L916.963 879.714Z" fill="#575243" fill-rule="nonzero" opacity="1" stroke="none"/>
<path d="M960.505 821.862L945.12 812.168L911.57 810.36L915.036 804.848L941.677 806.671L941.856 806.387L928.621 783.294L931.878 778.141L948.174 806.955L963.724 816.753L960.505 821.862Z" fill="#575243" fill-rule="nonzero" opacity="1" stroke="none"/>
<path d="M968.877 768.566L949.772 759.365L946.598 765.952L944.328 764.847L951.96 749.028L954.231 750.118L951.087 756.646L970.191 765.862L968.877 768.566Z" fill="#575243" fill-rule="nonzero" opacity="1" stroke="none"/>
<path d="M956.099 739.572L957.623 735.793L971.044 736.032L971.096 735.897L961.148 727.025L962.671 723.246L984.719 732.118L983.658 734.762L965.256 727.189L965.151 727.279L974.913 736.271L974.001 738.526L960.655 738.362L960.64 738.496L979.207 745.816L978.154 748.445L956.099 739.572Z" fill="#575243" fill-rule="nonzero" opacity="1" stroke="none"/>
<path d="M1099.79 579.092C1099.79 866.667 866.662 1099.79 579.088 1099.79C291.513 1099.79 58.3881 866.667 58.3881 579.092C58.3881 291.518 291.513 58.3935 579.088 58.3935C866.662 58.3935 1099.79 291.518 1099.79 579.092Z" fill="none" opacity="1" stroke="#575243" stroke-linecap="butt" stroke-linejoin="miter" stroke-width="6.5"/>
<path d="M1134.15 579.092C1134.15 885.644 885.639 1134.15 579.088 1134.15C272.537 1134.15 24.0285 885.644 24.0285 579.092C24.0285 272.541 272.537 24.0335 579.088 24.0335C885.639 24.0335 1134.15 272.541 1134.15 579.092Z" fill="none" opacity="1" stroke="#575243" stroke-linecap="butt" stroke-linejoin="miter" stroke-width="6.5"/>
</g>
</g>
</g>
</g>
</svg>
