<?xml version="1.0" encoding="UTF-8" standalone="no"?>
<!DOCTYPE svg PUBLIC "-//W3C//DTD SVG 1.1//EN" "http://www.w3.org/Graphics/SVG/1.1/DTD/svg11.dtd">
<!-- Created with Vectornator (http://vectornator.io/) -->
<svg height="100%" stroke-miterlimit="10" style="fill-rule:nonzero;clip-rule:evenodd;stroke-linecap:round;stroke-linejoin:round;" version="1.1" viewBox="0 0.00505371 1158.18 1158.18" width="100%" xml:space="preserve" xmlns="http://www.w3.org/2000/svg" xmlns:vectornator="http://vectornator.io" xmlns:xlink="http://www.w3.org/1999/xlink">
<defs/>
<g id="Layer">
<g opacity="1">
<clipPath clip-rule="nonzero" id="ClipPath">
<path d="M0 0.00505371L1158.18 0.00505371L1158.18 1158.18L0 1158.18L0 0.00505371Z"/>
</clipPath>
<g clip-path="url(#ClipPath)">
<path d="M1134.15 579.092C1134.15 885.644 885.639 1134.15 579.088 1134.15C272.537 1134.15 24.0276 885.644 24.0276 579.092C24.0276 272.541 272.537 24.0325 579.088 24.0325C885.639 24.0325 1134.15 272.541 1134.15 579.092" fill="#575243" fill-rule="nonzero" opacity="1" stroke="none"/>
<path d="M461.327 496.883C481.345 496.883 493.648 487.703 493.648 471.625C493.648 455.547 483.635 446.358 463.791 446.358L427.861 446.358L427.861 496.883L461.327 496.883ZM506.117 550.037L493.813 550.037L488.234 538.879L457.388 502.462L428.025 502.462L428.025 535.599L430.325 550.037L419.661 550.037L421.301 535.599L421.301 455.547L419.661 441.109L464.277 441.109C488.234 441.109 500.538 452.267 500.538 471.625C500.538 489.829 487.574 500.987 464.937 501.968L506.117 550.037Z" fill="#fcf7ed" fill-rule="nonzero" opacity="1" stroke="none"/>
<path d="M617.309 541.508L615.99 550.037L539.712 550.037L541.352 535.599L541.352 455.547L539.712 441.108L615.669 441.108L616.979 449.638L602.541 446.523L548.077 446.523L548.077 491.148L589.422 491.148L603.2 489.673L603.2 497.872L589.422 496.562L548.077 496.562L548.077 544.623L602.706 544.623L617.309 541.508Z" fill="#fcf7ed" fill-rule="nonzero" opacity="1" stroke="none"/>
<path d="M689.94 544.623C722.261 544.623 739.155 529.04 739.155 495.408C739.155 461.777 722.261 446.523 690.105 446.523L660.413 446.523L660.413 544.623L689.94 544.623ZM653.688 535.599L653.688 455.547L652.049 441.109L689.775 441.109C726.686 441.109 746.209 458.332 746.209 495.408C746.209 532.484 726.686 550.037 689.775 550.037L652.049 550.037L653.688 535.599Z" fill="#fcf7ed" fill-rule="nonzero" opacity="1" stroke="none"/>
<path d="M276.506 613.727L276.506 702.638L279.126 717.076L267.152 717.076L269.782 702.638L269.782 613.727L244.679 613.727L230.076 616.842L231.395 608.148L314.892 608.148L316.202 616.842L301.599 613.727L276.506 613.727Z" fill="#fcf7ed" fill-rule="nonzero" opacity="1" stroke="none"/>
<path d="M351.116 702.638L351.116 622.586L349.476 608.148L359.48 608.148L357.84 622.586L357.84 658.187L431.333 658.187L431.333 622.586L429.693 608.148L439.697 608.148L438.057 622.586L438.057 702.638L439.697 717.076L429.693 717.076L431.333 702.638L431.333 663.601L357.84 663.601L357.84 702.638L359.48 717.076L349.476 717.076L351.116 702.638Z" fill="#fcf7ed" fill-rule="nonzero" opacity="1" stroke="none"/>
<path d="M522.342 663.922C542.36 663.922 554.663 654.742 554.663 638.664C554.663 622.586 544.65 613.397 524.806 613.397L488.876 613.397L488.876 663.922L522.342 663.922ZM567.132 717.076L554.828 717.076L549.249 705.918L518.403 669.501L489.04 669.501L489.04 702.638L491.34 717.076L480.676 717.076L482.316 702.638L482.316 622.586L480.676 608.148L525.292 608.148C549.249 608.148 561.553 619.306 561.553 638.664C561.553 656.868 548.589 668.026 525.952 669.007L567.132 717.076Z" fill="#fcf7ed" fill-rule="nonzero" opacity="1" stroke="none"/>
<path d="M678.324 708.547L677.005 717.076L600.727 717.076L602.367 702.638L602.367 622.586L600.727 608.147L676.684 608.147L677.994 616.677L663.556 613.562L609.091 613.562L609.091 658.187L650.437 658.187L664.215 656.703L664.215 664.911L650.437 663.601L609.091 663.601L609.091 711.662L663.721 711.662L678.324 708.547Z" fill="#fcf7ed" fill-rule="nonzero" opacity="1" stroke="none"/>
<path d="M780.482 681.31L752.76 616.677L725.202 681.31L780.482 681.31ZM802.799 717.076L793.116 717.076L789.671 702.968L782.781 686.724L722.738 686.724L715.849 702.968L712.404 717.076L703.224 717.076L747.675 613.397L744.56 608.147L756.204 608.147L802.799 717.076Z" fill="#fcf7ed" fill-rule="nonzero" opacity="1" stroke="none"/>
<path d="M871.83 711.662C904.151 711.662 921.045 696.079 921.045 662.447C921.045 628.816 904.151 613.562 871.995 613.562L842.303 613.562L842.303 711.662L871.83 711.662ZM835.578 702.638L835.578 622.586L833.939 608.148L871.665 608.148C908.576 608.148 928.099 625.371 928.099 662.447C928.099 699.523 908.576 717.076 871.665 717.076L833.939 717.076L835.578 702.638Z" fill="#fcf7ed" fill-rule="nonzero" opacity="1" stroke="none"/>
<path d="M1099.79 579.092C1099.79 866.668 866.663 1099.79 579.088 1099.79C291.513 1099.79 58.3871 866.668 58.3871 579.092C58.3871 291.517 291.513 58.3925 579.088 58.3925C866.663 58.3925 1099.79 291.517 1099.79 579.092Z" fill="none" opacity="1" stroke="#fcf7ed" stroke-linecap="butt" stroke-linejoin="miter" stroke-width="6.5"/>
<path d="M579.088 183.089L579.088 353.085" fill="none" opacity="1" stroke="#fcf7ed" stroke-linecap="butt" stroke-linejoin="miter" stroke-width="6.5"/>
<path d="M579.088 975.096L579.088 805.1" fill="none" opacity="1" stroke="#fcf7ed" stroke-linecap="butt" stroke-linejoin="miter" stroke-width="6.5"/>
<path d="M572.291 124.146L578.984 117.453C579.041 117.396 579.134 117.396 579.192 117.453L585.885 124.146C585.942 124.203 585.942 124.297 585.885 124.354L579.192 131.047C579.134 131.104 579.041 131.104 578.984 131.047L572.291 124.354C572.234 124.297 572.234 124.203 572.291 124.146" fill="#fcf7ed" fill-rule="nonzero" opacity="1" stroke="none"/>
<path d="M585.885 1034.04L579.192 1040.73C579.135 1040.79 579.042 1040.79 578.984 1040.73L572.291 1034.04C572.234 1033.98 572.234 1033.89 572.291 1033.83L578.984 1027.14C579.042 1027.08 579.135 1027.08 579.192 1027.14L585.885 1033.83C585.942 1033.89 585.942 1033.98 585.885 1034.04" fill="#fcf7ed" fill-rule="nonzero" opacity="1" stroke="none"/>
</g>
</g>
</g>
</svg>
