<?xml version="1.0" encoding="UTF-8" standalone="no"?>
<!DOCTYPE svg PUBLIC "-//W3C//DTD SVG 1.1//EN" "http://www.w3.org/Graphics/SVG/1.1/DTD/svg11.dtd">
<!-- Created with Vectornator (http://vectornator.io/) -->
<svg height="100%" stroke-miterlimit="10" style="fill-rule:nonzero;clip-rule:evenodd;stroke-linecap:round;stroke-linejoin:round;" version="1.1" viewBox="0 7.33439e-06 1768.7 372.164" width="100%" xml:space="preserve" xmlns="http://www.w3.org/2000/svg" xmlns:vectornator="http://vectornator.io" xmlns:xlink="http://www.w3.org/1999/xlink">
<defs/>
<g id="Layer">
<g opacity="1">
<clipPath clip-rule="nonzero" id="ClipPath">
<path d="M0 7.33439e-06L1768.7 7.33439e-06L1768.7 372.164L0 372.164L0 7.33439e-06Z"/>
</clipPath>
<g clip-path="url(#ClipPath)">
<path d="M78.723 104.392C110.387 104.392 129.849 89.8563 129.849 64.4263C129.849 38.9923 114.019 24.4613 82.617 24.4613L25.781 24.4613L25.781 104.392L78.723 104.392ZM149.572 188.475L130.11 188.475L121.285 170.829L72.494 113.212L26.042 113.212L26.042 165.636L29.675 188.475L12.804 188.475L15.401 165.636L15.401 38.9923L12.804 16.1543L83.397 16.1543C121.285 16.1543 140.747 33.7993 140.747 64.4263C140.747 93.2323 120.248 110.878 84.434 112.437L149.572 188.475Z" fill="#575243" fill-rule="nonzero" opacity="1" stroke="none"/>
<path d="M325.517 174.98L323.439 188.475L202.762 188.475L205.358 165.636L205.358 38.9922L202.762 16.1542L322.921 16.1542L324.999 29.6482L302.16 24.7172L216 24.7172L216 95.3052L281.4 95.3052L303.197 92.9712L303.197 105.947L281.4 103.874L216 103.874L216 179.911L302.417 179.911L325.517 174.98Z" fill="#575243" fill-rule="nonzero" opacity="1" stroke="none"/>
<path d="M440.468 179.911C491.594 179.911 518.321 155.256 518.321 102.053C518.321 48.8541 491.594 24.7171 440.725 24.7171L393.755 24.7171L393.755 179.911L440.468 179.911ZM383.113 165.636L383.113 38.9921L380.517 16.1541L440.206 16.1541C498.598 16.1541 529.481 43.4051 529.481 102.053C529.481 160.706 498.598 188.475 440.206 188.475L380.517 188.475L383.113 165.636Z" fill="#575243" fill-rule="nonzero" opacity="1" stroke="none"/>
<path d="M724.883 24.9792L724.883 165.636L729.034 188.475L710.09 188.475L714.241 165.636L714.241 24.9792L674.537 24.9792L651.437 29.9102L653.515 16.1542L785.609 16.1542L787.687 29.9102L764.587 24.9792L724.883 24.9792Z" fill="#575243" fill-rule="nonzero" opacity="1" stroke="none"/>
<path d="M842.954 165.637L842.954 38.9916L840.358 16.1536L856.192 16.1536L853.596 38.9916L853.596 95.3056L969.86 95.3056L969.86 38.9916L967.264 16.1536L983.093 16.1536L980.502 38.9916L980.502 165.637L983.093 188.475L967.264 188.475L969.86 165.637L969.86 103.874L853.596 103.874L853.596 165.637L856.192 188.475L840.358 188.475L842.954 165.637Z" fill="#575243" fill-rule="nonzero" opacity="1" stroke="none"/>
<path d="M1113.88 104.392C1145.54 104.392 1165.01 89.8563 1165.01 64.4263C1165.01 38.9923 1149.18 24.4613 1117.77 24.4613L1060.94 24.4613L1060.94 104.392L1113.88 104.392ZM1184.73 188.475L1165.27 188.475L1156.44 170.829L1107.65 113.212L1061.2 113.212L1061.2 165.636L1064.83 188.475L1047.96 188.475L1050.56 165.636L1050.56 38.9923L1047.96 16.1543L1118.55 16.1543C1156.44 16.1543 1175.9 33.7993 1175.9 64.4263C1175.9 93.2323 1155.4 110.878 1119.59 112.437L1184.73 188.475Z" fill="#575243" fill-rule="nonzero" opacity="1" stroke="none"/>
<path d="M1360.67 174.98L1358.59 188.475L1237.91 188.475L1240.51 165.636L1240.51 38.9922L1237.91 16.1542L1358.07 16.1542L1360.15 29.6482L1337.31 24.7172L1251.15 24.7172L1251.15 95.3052L1316.55 95.3052L1338.35 92.9712L1338.35 105.947L1316.55 103.874L1251.15 103.874L1251.15 179.911L1337.57 179.911L1360.67 174.98Z" fill="#575243" fill-rule="nonzero" opacity="1" stroke="none"/>
<path d="M1522.34 131.9L1478.48 29.6489L1434.88 131.9L1522.34 131.9ZM1557.63 188.475L1542.32 188.475L1536.87 166.155L1525.97 140.464L1430.98 140.464L1420.09 166.155L1414.64 188.475L1400.11 188.475L1470.43 24.4609L1465.5 16.1539L1483.93 16.1539L1557.63 188.475Z" fill="#575243" fill-rule="nonzero" opacity="1" stroke="none"/>
<path d="M1666.88 179.911C1718.01 179.911 1744.73 155.256 1744.73 102.053C1744.73 48.8541 1718.01 24.7171 1667.14 24.7171L1620.17 24.7171L1620.17 179.911L1666.88 179.911ZM1609.52 165.636L1609.52 38.9921L1606.93 16.1541L1666.62 16.1541C1725.01 16.1541 1755.89 43.4051 1755.89 102.053C1755.89 160.706 1725.01 188.475 1666.62 188.475L1606.93 188.475L1609.52 165.636Z" fill="#575243" fill-rule="nonzero" opacity="1" stroke="none"/>
<path d="M502.967 321.78C502.967 299.823 508.872 286.905 526.861 286.905C538.486 286.905 546.236 293.735 547.525 308.683L541.804 309.327C540.332 298.53 535.992 292.349 526.12 292.349C514.035 292.349 509.424 302.221 509.424 321.78C509.424 342.172 513.391 350.658 525.936 350.658C533.318 350.658 539.13 346.139 541.252 335.711L546.696 336.912C544.483 351.119 535.163 356.011 525.292 356.011C506.377 356.011 502.967 339.862 502.967 321.78" fill="#575243" fill-rule="nonzero" opacity="1" stroke="none"/>
<path d="M619.958 320.951C619.958 302.496 616.635 292.349 604.366 292.349C591.913 292.349 587.481 302.588 587.481 321.411C587.481 341.246 591.172 350.658 603.63 350.658C615.991 350.658 619.958 340.786 619.958 320.951M581.024 321.411C581.024 301.484 586.1 286.904 604.55 286.904C622.816 286.904 626.323 301.484 626.323 320.026C626.323 341.798 621.711 356.01 603.257 356.01C584.807 356.01 581.024 341.43 581.024 321.411" fill="#575243" fill-rule="nonzero" opacity="1" stroke="none"/>
<path d="M661.018 354.901L661.018 288.106L669.417 288.106L699.032 344.937L699.216 344.937L699.216 288.106L704.936 288.106L704.936 354.901L698.015 354.901L667.015 295.948L666.83 295.948L666.83 354.901L661.018 354.901Z" fill="#575243" fill-rule="nonzero" opacity="1" stroke="none"/>
<path d="M740 337.464L745.72 336.452C747.566 345.858 750.981 350.658 761.865 350.658C769.983 350.658 776.628 347.52 776.628 337.924C776.628 328.334 769.247 325.931 761.312 323.533C752.269 320.768 742.679 317.905 742.679 304.619C742.679 293.827 749.964 286.905 762.882 286.905C774.507 286.905 780.964 291.889 782.441 305.452L776.812 306.188C775.519 298.806 774.139 292.441 762.974 292.441C751.809 292.441 748.675 297.702 748.675 304.342C748.675 313.386 756.052 315.783 763.986 318.273C773.121 321.136 782.809 324.178 782.809 337.096C782.809 350.29 773.214 356.011 761.681 356.011C748.026 356.011 742.029 350.382 740 337.464" fill="#575243" fill-rule="nonzero" opacity="1" stroke="none"/>
<path d="M819.259 333.128L819.259 288.105L825.44 288.105L825.44 332.76C825.44 345.949 830.884 350.565 841.957 350.565C851.363 350.565 857.917 346.23 857.917 332.944L857.917 288.105L864.098 288.105L864.098 333.22C864.098 348.536 855.427 356.01 841.681 356.01C825.997 356.01 819.259 347.887 819.259 333.128" fill="#575243" fill-rule="nonzero" opacity="1" stroke="none"/>
<path d="M902.581 354.901L902.581 288.106L908.762 288.106L908.762 349.549L944.097 349.549L944.097 354.901L902.581 354.901Z" fill="#575243" fill-rule="nonzero" opacity="1" stroke="none"/>
<path d="M997.339 354.901L997.339 293.458L976.027 293.458L976.027 288.106L1024.74 288.106L1024.74 293.458L1003.52 293.458L1003.52 354.901L997.339 354.901Z" fill="#575243" fill-rule="nonzero" opacity="1" stroke="none"/>
<path d="M1060.45 354.901L1060.45 349.549L1076.69 349.549L1076.69 293.458L1060.45 293.458L1060.45 288.106L1099.01 288.106L1099.01 293.458L1082.87 293.458L1082.87 349.549L1099.01 349.549L1099.01 354.901L1060.45 354.901Z" fill="#575243" fill-rule="nonzero" opacity="1" stroke="none"/>
<path d="M1137.12 354.901L1137.12 288.106L1145.52 288.106L1175.14 344.937L1175.32 344.937L1175.32 288.106L1181.04 288.106L1181.04 354.901L1174.12 354.901L1143.12 295.948L1142.94 295.948L1142.94 354.901L1137.12 354.901Z" fill="#575243" fill-rule="nonzero" opacity="1" stroke="none"/>
<path d="M1215.65 322.24C1215.65 302.87 1219.98 286.905 1239.08 286.905C1252.83 286.905 1258.73 295.12 1260.3 308.682L1254.49 309.327C1252.74 296.316 1246.83 292.349 1238.71 292.349C1223.67 292.349 1222.1 308.585 1222.1 322.24C1222.1 344.662 1227.73 350.658 1238.8 350.658C1249.14 350.658 1254.58 342.075 1254.58 328.052L1254.58 325.747L1237.33 325.747L1237.33 320.303L1260.21 320.303L1260.21 354.901L1255.59 354.901L1254.67 346.323C1252.46 351.952 1245.63 356.011 1237.79 356.011C1220.35 356.011 1215.65 342.172 1215.65 322.24" fill="#575243" fill-rule="nonzero" opacity="1" stroke="none"/>
</g>
</g>
</g>
</svg>
